<svg id="Layer_1" data-name="Layer 1" xmlns="http://www.w3.org/2000/svg" viewBox="0 0 406.03 149.06"><defs><style>.cls-1{fill:#ea4535;}.cls-2,.cls-3{fill:#c52627;}.cls-3{font-size:44.14px;font-family:CodecColdTrial-Heavy, Codec Cold Trial;font-weight:800;}</style></defs><path class="cls-1" d="M49,231.57l77.57,33a14.25,14.25,0,0,1,8.67,13.11h0a14.27,14.27,0,0,1-8.7,13.13L47,324.53v-2A30.08,30.08,0,0,1,65.8,294.64l41.73-16.84v-.18L65.8,260.78A30.07,30.07,0,0,1,47,232.89h0A1.44,1.44,0,0,1,49,231.57Z" transform="translate(-46.99 -175.47)"/><path class="cls-2" d="M135.23,278.32,55.66,244.45A14.25,14.25,0,0,1,47,231.33h0a14.25,14.25,0,0,1,8.69-13.12l79.55-33.71v2a30.08,30.08,0,0,1-18.82,27.89L74.68,231.24v.17l41.73,16.84a30.09,30.09,0,0,1,18.82,27.89Z" transform="translate(-46.99 -175.47)"/><path class="cls-2" d="M255.52,228.53a50.37,50.37,0,0,0-11.17-16.47,52.34,52.34,0,0,0-17.19-11.12,61.8,61.8,0,0,0-41.8-.85c-.75.27-1.49.54-2.21.85a52.58,52.58,0,0,0-17.08,11.12A49.77,49.77,0,0,0,155,228.53,51.67,51.67,0,0,0,151,248.67a54.09,54.09,0,0,0,.6,8H258.77c.17-1.09.34-2.2.51-3.31a37,37,0,0,0,.24-4.69A51.34,51.34,0,0,0,255.52,228.53Zm-74.78,8a25.93,25.93,0,0,1,9.13-12.11q6.27-4.59,15.39-4.6,8.82,0,14.73,4.65a26.69,26.69,0,0,1,8.64,12.06Z" transform="translate(-46.99 -175.47)"/><path class="cls-2" d="M405.4,276.76a21.14,21.14,0,0,1-5.45-.67,9.68,9.68,0,0,1-4.35-2.39,11.73,11.73,0,0,1-2.92-4.7,21.88,21.88,0,0,1-1.08-7.44v-23h-.07V199.22h.07V175.47l-20.84.19-8.82,23.93-14.74,5.64v22.16h15.49v34.44q0,12.3,3.15,19.85a27.86,27.86,0,0,0,8.59,11.74A30.17,30.17,0,0,0,387.14,299a78.57,78.57,0,0,0,15.44,1.47h18.87l.18-23.75Z" transform="translate(-46.99 -175.47)"/><path class="cls-1" d="M294.65,202.51H271.36v97.33h25V254.6a47.7,47.7,0,0,1,.29-5.21V210.66Z" transform="translate(-46.99 -175.47)"/><text class="cls-3" transform="translate(379.11 124.33)">&gt;</text><path class="cls-1" d="M258.75,256.74H179.82a25.5,25.5,0,0,0,3.79,8.27,27.66,27.66,0,0,0,6,6.23,28,28,0,0,0,7.41,4,25,25,0,0,0,8.22,1.4,23.72,23.72,0,0,0,11.93-2.9,20.77,20.77,0,0,0,7.68-7.42h31.35a47.63,47.63,0,0,1-6.57,12.53,49.57,49.57,0,0,1-10.89,10.95,55.37,55.37,0,0,1-15,7.67,57.13,57.13,0,0,1-18.73,2.92,57.82,57.82,0,0,1-19.78-3.28l-2.1-.8a52.24,52.24,0,0,1-17.07-11.13,51.06,51.06,0,0,1-14.52-28.51H258.77A.1.1,0,0,0,258.75,256.74Z" transform="translate(-46.99 -175.47)"/><path class="cls-2" d="M337.92,202.51v25.25l-12.22.09c-8,0-18.16,2.22-22.63,6.66q-5.34,5.31-6.43,14.88V210.66l-.12.14c3.12-2.63,7.3-3.91,11.78-5.66a43.12,43.12,0,0,1,15.82-2.63Z" transform="translate(-46.99 -175.47)"/><polygon class="cls-1" points="372.87 27.04 372.87 51.92 344.61 51.92 344.61 63.13 344.54 63.13 344.54 23.75 344.61 23.75 344.61 27.04 372.87 27.04"/></svg>