<?xml version="1.0" encoding="utf-8"?>
<!-- Generator: Adobe Illustrator 25.2.0, SVG Export Plug-In . SVG Version: 6.00 Build 0)  -->
<svg version="1.1" id="Layer_1" xmlns="http://www.w3.org/2000/svg" xmlns:xlink="http://www.w3.org/1999/xlink" x="0px" y="0px"
	 viewBox="0 0 48 48" style="enable-background:new 0 0 48 48;" xml:space="preserve">
<style type="text/css">
	.st0{fill:#65B3E3;}
	.st1{fill:#FFFFFF;}
</style>
<path class="st0" d="M18,3.46c3.71-2.14,8.29-2.14,12,0l8.78,5.07c3.71,2.14,6,6.11,6,10.39v10.14c0,4.29-2.29,8.25-6,10.39
	L30,44.54c-3.71,2.14-8.29,2.14-12,0l-8.78-5.07c-3.71-2.14-6-6.11-6-10.39V18.93c0-4.29,2.29-8.25,6-10.39L18,3.46z"/>
<path class="st1" d="M27.55,28.42c0-0.78-0.28-1.38-0.83-1.81c-0.55-0.42-1.53-0.85-2.97-1.28c-1.43-0.43-2.57-0.91-3.42-1.44
	c-1.62-1.02-2.43-2.34-2.43-3.98c0-1.43,0.58-2.61,1.75-3.54c1.17-0.93,2.69-1.39,4.55-1.39c1.24,0,2.34,0.23,3.31,0.68
	c0.97,0.46,1.73,1.11,2.28,1.95c0.55,0.84,0.83,1.77,0.83,2.8h-3.08c0-0.93-0.29-1.65-0.88-2.17c-0.58-0.53-1.41-0.79-2.49-0.79
	c-1.01,0-1.79,0.22-2.36,0.65C21.27,18.53,21,19.13,21,19.9c0,0.65,0.3,1.2,0.9,1.64c0.6,0.43,1.59,0.85,2.98,1.27
	c1.38,0.41,2.49,0.87,3.33,1.4c0.84,0.52,1.45,1.12,1.84,1.81c0.39,0.68,0.59,1.47,0.59,2.38c0,1.48-0.57,2.66-1.71,3.54
	c-1.13,0.87-2.67,1.31-4.61,1.31c-1.29,0-2.47-0.24-3.55-0.71c-1.07-0.48-1.91-1.14-2.51-1.98c-0.59-0.84-0.89-1.81-0.89-2.93h3.09
	c0,1.01,0.33,1.79,1,2.34c0.67,0.55,1.62,0.83,2.87,0.83c1.07,0,1.88-0.22,2.42-0.65C27.28,29.72,27.55,29.14,27.55,28.42z"/>
</svg>
